<svg xmlns="http://www.w3.org/2000/svg" viewBox="0 0 520 340" fill="none">
  <!-- Browser frame -->
  <rect width="520" height="340" rx="10" fill="#0F2034"/>
  <rect width="520" height="340" rx="10" stroke="rgba(0,196,255,0.2)" stroke-width="1"/>
  <!-- Browser bar -->
  <rect x="0" y="0" width="520" height="36" rx="10" fill="#0D1E2F"/>
  <rect x="0" y="26" width="520" height="10" fill="#0D1E2F"/>
  <!-- Traffic lights -->
  <circle cx="18" cy="18" r="5" fill="#FF5F57" opacity="0.9"/>
  <circle cx="34" cy="18" r="5" fill="#FEBC2E" opacity="0.9"/>
  <circle cx="50" cy="18" r="5" fill="#28C840" opacity="0.9"/>
  <!-- URL bar -->
  <rect x="72" y="10" width="280" height="16" rx="8" fill="rgba(255,255,255,0.06)"/>
  <text x="212" y="22" font-family="monospace" font-size="8" fill="rgba(255,255,255,0.35)" text-anchor="middle">iromero0972-netizen.github.io/andys-bakery-/admin</text>
  <!-- Sidebar -->
  <rect x="0" y="36" width="110" height="304" fill="#091828"/>
  <text x="55" y="64" font-family="Arial" font-size="9" font-weight="bold" fill="#F5A623" text-anchor="middle">Andy's Bakery</text>
  <text x="55" y="76" font-family="Arial" font-size="7" fill="rgba(255,255,255,0.4)" text-anchor="middle">Admin Panel</text>
  <!-- Sidebar items -->
  <rect x="10" y="90" width="90" height="22" rx="4" fill="rgba(0,196,255,0.15)"/>
  <text x="55" y="105" font-family="Arial" font-size="8" fill="#00C4FF" text-anchor="middle">Pedidos</text>
  <text x="55" y="130" font-family="Arial" font-size="8" fill="rgba(255,255,255,0.4)" text-anchor="middle">Reportes</text>
  <text x="55" y="152" font-family="Arial" font-size="8" fill="rgba(255,255,255,0.4)" text-anchor="middle">Ajustes</text>
  <!-- Stats row -->
  <rect x="120" y="46" width="85" height="52" rx="6" fill="rgba(0,196,255,0.08)" stroke="rgba(0,196,255,0.2)" stroke-width="1"/>
  <text x="162" y="66" font-family="Arial" font-size="18" font-weight="bold" fill="#00C4FF" text-anchor="middle">12</text>
  <text x="162" y="78" font-family="Arial" font-size="7" fill="rgba(255,255,255,0.4)" text-anchor="middle">Pedidos Hoy</text>
  <rect x="215" y="46" width="85" height="52" rx="6" fill="rgba(0,224,150,0.08)" stroke="rgba(0,224,150,0.2)" stroke-width="1"/>
  <text x="257" y="66" font-family="Arial" font-size="18" font-weight="bold" fill="#00E096" text-anchor="middle">$847</text>
  <text x="257" y="78" font-family="Arial" font-size="7" fill="rgba(255,255,255,0.4)" text-anchor="middle">Ventas Hoy</text>
  <rect x="310" y="46" width="85" height="52" rx="6" fill="rgba(245,166,35,0.08)" stroke="rgba(245,166,35,0.2)" stroke-width="1"/>
  <text x="352" y="66" font-family="Arial" font-size="18" font-weight="bold" fill="#F5A623" text-anchor="middle">3</text>
  <text x="352" y="78" font-family="Arial" font-size="7" fill="rgba(255,255,255,0.4)" text-anchor="middle">Pendientes</text>
  <rect x="405" y="46" width="100" height="52" rx="6" fill="rgba(176,127,255,0.08)" stroke="rgba(176,127,255,0.2)" stroke-width="1"/>
  <text x="455" y="66" font-family="Arial" font-size="18" font-weight="bold" fill="#B07FFF" text-anchor="middle">98%</text>
  <text x="455" y="78" font-family="Arial" font-size="7" fill="rgba(255,255,255,0.4)" text-anchor="middle">Entrega OK</text>
  <!-- Orders table header -->
  <rect x="120" y="110" width="385" height="24" rx="4" fill="rgba(255,255,255,0.04)"/>
  <text x="135" y="126" font-family="Arial" font-size="7" font-weight="bold" fill="rgba(255,255,255,0.5)">ORDEN</text>
  <text x="210" y="126" font-family="Arial" font-size="7" font-weight="bold" fill="rgba(255,255,255,0.5)">CLIENTE</text>
  <text x="310" y="126" font-family="Arial" font-size="7" font-weight="bold" fill="rgba(255,255,255,0.5)">PRODUCTO</text>
  <text x="400" y="126" font-family="Arial" font-size="7" font-weight="bold" fill="rgba(255,255,255,0.5)">ESTADO</text>
  <text x="465" y="126" font-family="Arial" font-size="7" font-weight="bold" fill="rgba(255,255,255,0.5)">TOTAL</text>
  <!-- Row 1 -->
  <rect x="120" y="136" width="385" height="26" fill="rgba(255,255,255,0.02)"/>
  <text x="135" y="152" font-family="monospace" font-size="7" fill="rgba(0,196,255,0.8)">ORD-1743</text>
  <text x="210" y="152" font-family="Arial" font-size="7" fill="rgba(255,255,255,0.7)">Maria Gonzalez</text>
  <text x="310" y="152" font-family="Arial" font-size="7" fill="rgba(255,255,255,0.6)">Cake Jar x3</text>
  <rect x="398" y="143" width="48" height="14" rx="7" fill="rgba(0,224,150,0.15)"/>
  <text x="422" y="153" font-family="Arial" font-size="6.5" fill="#00E096" text-anchor="middle">Aprobado</text>
  <text x="467" y="152" font-family="Arial" font-size="7" fill="rgba(255,255,255,0.7)">$45.00</text>
  <!-- Row 2 -->
  <rect x="120" y="164" width="385" height="26" fill="rgba(255,255,255,0.015)"/>
  <text x="135" y="180" font-family="monospace" font-size="7" fill="rgba(0,196,255,0.8)">ORD-1744</text>
  <text x="210" y="180" font-family="Arial" font-size="7" fill="rgba(255,255,255,0.7)">Carlos Ruiz</text>
  <text x="310" y="180" font-family="Arial" font-size="7" fill="rgba(255,255,255,0.6)">Birthday Cake</text>
  <rect x="398" y="171" width="48" height="14" rx="7" fill="rgba(245,166,35,0.15)"/>
  <text x="422" y="181" font-family="Arial" font-size="6.5" fill="#F5A623" text-anchor="middle">Pendiente</text>
  <text x="467" y="180" font-family="Arial" font-size="7" fill="rgba(255,255,255,0.7)">$78.00</text>
  <!-- Row 3 -->
  <rect x="120" y="192" width="385" height="26" fill="rgba(255,255,255,0.02)"/>
  <text x="135" y="208" font-family="monospace" font-size="7" fill="rgba(0,196,255,0.8)">ORD-1745</text>
  <text x="210" y="208" font-family="Arial" font-size="7" fill="rgba(255,255,255,0.7)">Ana Martinez</text>
  <text x="310" y="208" font-family="Arial" font-size="7" fill="rgba(255,255,255,0.6)">Cake Jar x6</text>
  <rect x="398" y="199" width="48" height="14" rx="7" fill="rgba(0,224,150,0.15)"/>
  <text x="422" y="209" font-family="Arial" font-size="6.5" fill="#00E096" text-anchor="middle">Aprobado</text>
  <text x="467" y="208" font-family="Arial" font-size="7" fill="rgba(255,255,255,0.7)">$90.00</text>
  <!-- Row 4 -->
  <rect x="120" y="220" width="385" height="26" fill="rgba(255,255,255,0.015)"/>
  <text x="135" y="236" font-family="monospace" font-size="7" fill="rgba(0,196,255,0.8)">ORD-1746</text>
  <text x="210" y="236" font-family="Arial" font-size="7" fill="rgba(255,255,255,0.7)">Luis Herrera</text>
  <text x="310" y="236" font-family="Arial" font-size="7" fill="rgba(255,255,255,0.6)">Wedding x12</text>
  <rect x="398" y="227" width="48" height="14" rx="7" fill="rgba(0,196,255,0.15)"/>
  <text x="422" y="237" font-family="Arial" font-size="6.5" fill="#00C4FF" text-anchor="middle">Enviado</text>
  <text x="467" y="236" font-family="Arial" font-size="7" fill="rgba(255,255,255,0.7)">$240.00</text>
  <!-- Chart -->
  <rect x="120" y="260" width="230" height="68" rx="6" fill="rgba(255,255,255,0.02)" stroke="rgba(255,255,255,0.06)" stroke-width="1"/>
  <text x="135" y="274" font-family="Arial" font-size="7" fill="rgba(255,255,255,0.4)">Ventas esta semana</text>
  <rect x="138" y="304" width="16" height="16" rx="2" fill="rgba(0,196,255,0.3)"/>
  <rect x="161" y="296" width="16" height="24" rx="2" fill="rgba(0,196,255,0.35)"/>
  <rect x="184" y="288" width="16" height="32" rx="2" fill="rgba(0,196,255,0.4)"/>
  <rect x="207" y="282" width="16" height="38" rx="2" fill="rgba(0,196,255,0.5)"/>
  <rect x="230" y="275" width="16" height="45" rx="2" fill="rgba(0,196,255,0.6)"/>
  <rect x="253" y="279" width="16" height="41" rx="2" fill="rgba(0,196,255,0.55)"/>
  <rect x="276" y="271" width="16" height="49" rx="2" fill="#00C4FF"/>
  <text x="146" y="315" font-family="Arial" font-size="6" fill="rgba(255,255,255,0.3)" text-anchor="middle">L</text>
  <text x="169" y="315" font-family="Arial" font-size="6" fill="rgba(255,255,255,0.3)" text-anchor="middle">M</text>
  <text x="192" y="315" font-family="Arial" font-size="6" fill="rgba(255,255,255,0.3)" text-anchor="middle">X</text>
  <text x="215" y="315" font-family="Arial" font-size="6" fill="rgba(255,255,255,0.3)" text-anchor="middle">J</text>
  <text x="238" y="315" font-family="Arial" font-size="6" fill="rgba(255,255,255,0.3)" text-anchor="middle">V</text>
  <text x="261" y="315" font-family="Arial" font-size="6" fill="rgba(255,255,255,0.3)" text-anchor="middle">S</text>
  <text x="284" y="315" font-family="Arial" font-size="6" fill="#00C4FF" text-anchor="middle">D</text>
  <!-- N8N badge -->
  <rect x="360" y="260" width="145" height="68" rx="6" fill="rgba(0,224,150,0.05)" stroke="rgba(0,224,150,0.2)" stroke-width="1"/>
  <text x="432" y="278" font-family="Arial" font-size="7" fill="rgba(255,255,255,0.5)" text-anchor="middle">Sistema N8N</text>
  <circle cx="380" cy="292" r="4" fill="#00E096"/>
  <text x="393" y="296" font-family="Arial" font-size="8" fill="#00E096">Activo - 3 workflows</text>
  <text x="374" y="314" font-family="Arial" font-size="6.5" fill="rgba(255,255,255,0.35)">Pedidos - Decisiones - Social</text>
  <text x="374" y="324" font-family="Arial" font-size="6" fill="rgba(0,196,255,0.5)">Ultimo trigger: hace 4 min</text>
</svg>
